<svg width="32" height="32" viewBox="0 0 32 32" fill="none" xmlns="http://www.w3.org/2000/svg">
<path fill-rule="evenodd" clip-rule="evenodd" d="M10 9.90826C10 10.1165 9.94455 10.3211 9.83922 10.5015C9.7339 10.6819 9.58242 10.8317 9.4 10.9358L5.8 12.9909C5.61758 13.095 5.41065 13.1499 5.20001 13.1499C4.98937 13.1499 4.78244 13.095 4.60001 12.9909C4.41759 12.8868 4.26611 12.737 4.16078 12.5566C4.05546 12.3762 4.00001 12.1716 4 11.9634V7.85317C4.00001 7.64489 4.05546 7.44028 4.16078 7.25991C4.26611 7.07954 4.41759 6.92975 4.60001 6.82562C4.78244 6.72148 4.98937 6.66666 5.20001 6.66666C5.41065 6.66666 5.61758 6.72148 5.8 6.82562L9.4 8.88072C9.58242 8.98485 9.7339 9.13464 9.83922 9.31501C9.94455 9.49538 10 9.69999 10 9.90826ZM5.2 15.841C4.88174 15.841 4.57652 15.966 4.35147 16.1885C4.12643 16.411 4 16.7128 4 17.0275C4 17.3422 4.12643 17.644 4.35147 17.8665C4.57652 18.0891 4.88174 18.2141 5.2 18.2141H26.8C27.1183 18.2141 27.4235 18.0891 27.6485 17.8665C27.8736 17.644 28 17.3422 28 17.0275C28 16.7128 27.8736 16.411 27.6485 16.1885C27.4235 15.966 27.1183 15.841 26.8 15.841H5.2ZM12.4 9.90826C12.4 9.59357 12.5264 9.29177 12.7515 9.06925C12.9765 8.84673 13.2817 8.72172 13.6 8.72172H26.8C27.1183 8.72172 27.4235 8.84673 27.6485 9.06925C27.8736 9.29177 28 9.59357 28 9.90826C28 10.223 27.8736 10.5248 27.6485 10.7473C27.4235 10.9698 27.1183 11.0948 26.8 11.0948H13.6C13.2817 11.0948 12.9765 10.9698 12.7515 10.7473C12.5264 10.5248 12.4 10.223 12.4 9.90826ZM5.2 22.9602C4.88174 22.9602 4.57652 23.0852 4.35147 23.3078C4.12643 23.5303 4 23.8321 4 24.1468C4 24.4615 4.12643 24.7633 4.35147 24.9858C4.57652 25.2083 4.88174 25.3333 5.2 25.3333H26.8C27.1183 25.3333 27.4235 25.2083 27.6485 24.9858C27.8736 24.7633 28 24.4615 28 24.1468C28 23.8321 27.8736 23.5303 27.6485 23.3078C27.4235 23.0852 27.1183 22.9602 26.8 22.9602H5.2Z" fill="white"/>
</svg>
